<?xml version="1.0" encoding="UTF-8" standalone="no"?>
<!-- Created with Inkscape (http://www.inkscape.org/) -->

<svg
   xmlns:dc="http://purl.org/dc/elements/1.1/"
   xmlns:cc="http://creativecommons.org/ns#"
   xmlns:rdf="http://www.w3.org/1999/02/22-rdf-syntax-ns#"
   xmlns:svg="http://www.w3.org/2000/svg"
   xmlns="http://www.w3.org/2000/svg"
   xmlns:sodipodi="http://sodipodi.sourceforge.net/DTD/sodipodi-0.dtd"
   xmlns:inkscape="http://www.inkscape.org/namespaces/inkscape"
   width="400mm"
   height="400mm"
   viewBox="0 0 1417.3229 1417.322"
   id="svg2"
   version="1.1"
   inkscape:version="0.91 r13725"
   sodipodi:docname="profile.svg"
   inkscape:export-filename="/home/sam/Documents/Projects/jama/artwork/logo/001/usages/twitter/profile.png"
   inkscape:export-xdpi="25.4"
   inkscape:export-ydpi="25.4">
  <defs
     id="defs4" />
  <sodipodi:namedview
     id="base"
     pagecolor="#2c9b92"
     bordercolor="#666666"
     borderopacity="1.0"
     inkscape:pageopacity="1"
     inkscape:pageshadow="2"
     inkscape:zoom="0.19642667"
     inkscape:cx="1435.6503"
     inkscape:cy="885.82677"
     inkscape:document-units="px"
     inkscape:current-layer="g4529"
     showgrid="false"
     inkscape:window-width="1676"
     inkscape:window-height="1031"
     inkscape:window-x="1920"
     inkscape:window-y="265"
     inkscape:window-maximized="0"
     fit-margin-top="10"
     fit-margin-right="10"
     fit-margin-bottom="10"
     fit-margin-left="10" />
  <metadata
     id="metadata7">
    <rdf:RDF>
      <cc:Work
         rdf:about="">
        <dc:format>image/svg+xml</dc:format>
        <dc:type
           rdf:resource="http://purl.org/dc/dcmitype/StillImage" />
        <dc:title></dc:title>
      </cc:Work>
    </rdf:RDF>
  </metadata>
  <g
     inkscape:label="Text"
     inkscape:groupmode="layer"
     id="layer1"
     transform="translate(7.3887024,466.42686)">
    <g
       id="g4556"
       transform="translate(318.30691,-100.30015)"
       style="fill:#ffffff">
      <g
         transform="matrix(1.1444738,0,0,1.1444738,-52.627807,-89.218318)"
         id="g4529"
         style="fill:#ffffff">
        <g
           id="g4601"
           transform="matrix(0.73052654,0,0,0.73052654,114.16113,291.40935)">
          <g
             id="text4155"
             style="font-style:normal;font-variant:normal;font-weight:500;font-stretch:normal;font-size:249.91932678px;line-height:125%;font-family:Ubuntu;-inkscape-font-specification:'Ubuntu, Medium';text-align:start;letter-spacing:0px;word-spacing:0px;writing-mode:lr-tb;text-anchor:start;fill:#ffffff;fill-opacity:1;stroke:none;stroke-width:1px;stroke-linecap:butt;stroke-linejoin:miter;stroke-opacity:1">
            <path
               id="path4466"
               style="font-style:normal;font-variant:normal;font-weight:500;font-stretch:normal;font-size:249.91932678px;line-height:125%;font-family:Ubuntu;-inkscape-font-specification:'Ubuntu, Medium';text-align:start;writing-mode:lr-tb;text-anchor:start;fill:#ffffff"
               d="m 129.0228,804.22701 q 0,12.74589 -2.74911,23.74234 -2.74911,10.99645 -9.74685,19.24379 -6.74782,8.24733 -18.494032,12.9958 -11.496289,4.74847 -29.240561,4.74847 -16.494676,0 -28.740723,-4.49855 -11.996127,-4.74847 -18.49403,-9.99677 l 11.24637,-24.74202 q 6.247983,4.24863 15.245079,8.24734 9.247015,3.74879 18.743949,3.74879 15.994837,0 23.242498,-7.99742 7.24766,-7.99742 7.24766,-27.49112 l 0,-114.21314 31.73975,0 0,116.21249 z"
               inkscape:connector-curvature="0" />
          </g>
          <path
             id="path4463"
             transform="translate(0,598.81917)"
             d="m 215.93359,89.195312 c -5.83144,12.329358 -11.49591,24.825698 -16.99414,37.488278 -5.49822,12.66258 -11.0793,25.99085 -16.74414,39.98633 -5.49822,13.99548 -11.16268,28.82472 -16.99414,44.48633 -0.0542,0.14568 -0.10976,0.30134 -0.16406,0.44727 l 61.61133,-52.8379 0,-69.570308 -10.71485,0 z m 19.98047,0 0,70.175778 60.54688,51.92383 c -0.0173,-0.0452 -0.0354,-0.0934 -0.0527,-0.13867 -5.83145,-15.66161 -11.5793,-30.49085 -17.24414,-44.48633 -5.49822,-13.99548 -10.99786,-27.32375 -16.49609,-39.98633 -5.49823,-12.66258 -11.16269,-25.15892 -16.99414,-37.488278 l -9.75977,0 z m -9.26562,81.777348 -68.15821,58.44922 c -3.80285,10.45723 -7.71976,21.40161 -11.7832,32.96679 l 32.73828,0 6.99805,-19.99219 c 2.49919,-6.83112 4.91547,-13.7464 7.24805,-20.74414 l 32.95703,0 0,-50.67968 z m 9.26562,0.60351 0,50.07617 30.75391,0 c 2.33258,6.99774 4.74885,13.82963 7.24805,20.49414 2.49919,6.66452 4.91351,13.41107 7.24609,20.24219 l 33.99023,0 c -4.07965,-11.61132 -8.04896,-22.59728 -11.93164,-33.09179 l -67.30664,-57.72071 z"
             style="font-style:normal;font-variant:normal;font-weight:500;font-stretch:normal;font-size:249.91932678px;line-height:125%;font-family:Ubuntu;-inkscape-font-specification:'Ubuntu, Medium';text-align:start;letter-spacing:0px;word-spacing:0px;writing-mode:lr-tb;text-anchor:start;fill:#ffffff;fill-opacity:1;stroke:none;stroke-width:1px;stroke-linecap:butt;stroke-linejoin:miter;stroke-opacity:1"
             inkscape:connector-curvature="0" />
          <g
             id="text4155-2-9"
             style="font-style:normal;font-variant:normal;font-weight:500;font-stretch:normal;font-size:249.91932678px;line-height:125%;font-family:Ubuntu;-inkscape-font-specification:'Ubuntu, Medium';text-align:start;letter-spacing:0px;word-spacing:0px;writing-mode:lr-tb;text-anchor:start;fill:#ffffff;fill-opacity:1;stroke:none;stroke-width:1px;stroke-linecap:butt;stroke-linejoin:miter;stroke-opacity:1">
            <path
               id="path4460"
               style="font-style:normal;font-variant:normal;font-weight:500;font-stretch:normal;font-size:249.91932678px;line-height:125%;font-family:Ubuntu;-inkscape-font-specification:'Ubuntu, Medium';text-align:start;writing-mode:lr-tb;text-anchor:start;fill:#ffffff"
               d="m 375.32094,688.01452 q 5.49822,9.49694 12.24604,23.2425 6.74782,13.74557 13.74557,28.99064 6.99774,14.99516 13.74556,30.74008 6.99774,15.495 12.74588,28.74072 5.74815,-13.24572 12.49597,-28.74072 6.74782,-15.74492 13.74556,-30.74008 6.99774,-15.24507 13.74557,-28.99064 6.74782,-13.74556 12.24604,-23.2425 l 28.49081,0 q 2.24927,18.99387 4.24863,40.48694 1.99935,21.24314 3.49887,43.73588 1.74943,22.24282 2.99903,44.98548 1.49951,22.49274 2.49919,43.9858 l -30.99,0 q -0.99967,-30.24024 -2.49919,-62.22991 -1.2496,-31.98968 -3.99871,-61.98 -2.74911,5.74815 -6.4979,13.74557 -3.74879,7.99741 -7.99742,17.49435 -4.24863,9.24701 -8.74718,19.24379 -4.24862,9.99677 -8.49725,19.4937 -3.99871,9.24702 -7.49758,17.49436 -3.49887,7.99742 -5.99807,13.74556 l -23.49241,0 q -2.4992,-5.74814 -5.99807,-13.99548 -3.49887,-8.24734 -7.7475,-17.49436 -3.9987,-9.49693 -8.49725,-19.4937 -4.24863,-9.99678 -8.49726,-19.24379 -4.24863,-9.24702 -7.99742,-17.24443 -3.74879,-8.24734 -6.4979,-13.74557 -2.74911,29.99032 -4.24863,61.98 -1.2496,31.98967 -2.24927,62.22991 l -30.99,0 q 0.99968,-21.49306 2.24927,-44.48564 1.49952,-22.99258 2.99904,-45.48532 1.74943,-22.74266 3.74879,-43.9858 1.99935,-21.24314 4.24862,-39.23734 l 29.24057,0 z"
               inkscape:connector-curvature="0" />
          </g>
          <path
             id="path4457"
             transform="translate(0,598.81917)"
             d="m 608.68359,89.195312 c -5.83144,12.329358 -11.49591,24.825698 -16.99414,37.488278 -5.49822,12.66258 -11.0793,25.99085 -16.74414,39.98633 -5.49822,13.99548 -11.16268,28.82472 -16.99414,44.48633 -0.0545,0.14644 -0.11143,0.30253 -0.16601,0.44922 l 61.61523,-52.83985 0,-69.570308 -10.7168,0 z m 19.98243,0 0,70.175778 60.54296,51.91993 c -0.0168,-0.0439 -0.034,-0.0909 -0.0508,-0.13477 -5.83145,-15.66161 -11.5793,-30.49085 -17.24414,-44.48633 -5.49822,-13.99548 -10.99591,-27.32375 -16.49414,-39.98633 -5.49822,-12.66258 -11.16269,-25.15892 -16.99414,-37.488278 l -9.75976,0 z m -9.26563,81.777348 -68.16016,58.45312 c -3.80246,10.45621 -7.7202,21.39898 -11.7832,32.96289 l 32.73828,0 6.99805,-19.99219 c 2.49919,-6.83112 4.91547,-13.7464 7.24805,-20.74414 l 32.95898,0 0,-50.67968 z m 9.26563,0.60546 0,50.07422 30.75195,0 c 2.33258,6.99774 4.74885,13.82963 7.24805,20.49414 2.49919,6.66452 4.91546,13.41107 7.24804,20.24219 l 33.98828,0 c -4.07965,-11.61132 -8.04896,-22.59728 -11.93164,-33.09179 l -67.30468,-57.71876 z"
             style="font-style:normal;font-variant:normal;font-weight:500;font-stretch:normal;font-size:249.91932678px;line-height:125%;font-family:Ubuntu;-inkscape-font-specification:'Ubuntu, Medium';text-align:start;letter-spacing:0px;word-spacing:0px;writing-mode:lr-tb;text-anchor:start;fill:#ffffff;fill-opacity:1;stroke:none;stroke-width:1px;stroke-linecap:butt;stroke-linejoin:miter;stroke-opacity:1"
             inkscape:connector-curvature="0" />
        </g>
        <path
           inkscape:connector-curvature="0"
           style="font-style:normal;font-variant:normal;font-weight:500;font-stretch:normal;font-size:249.91932678px;line-height:125%;font-family:Ubuntu;-inkscape-font-specification:'Ubuntu, Medium';text-align:start;letter-spacing:0px;word-spacing:0px;writing-mode:lr-tb;text-anchor:start;fill:#ffffff;fill-opacity:1;stroke:none;stroke-width:1px;stroke-linecap:butt;stroke-linejoin:miter;stroke-opacity:1"
           d="M 286.04841,-168.78393 C 249.27839,-91.041379 213.56117,-12.245933 178.89218,67.597739 144.22326,147.4414 109.03184,231.48258 73.312311,319.73082 38.643371,407.97907 2.9262307,501.48465 -33.843939,600.23858 c -0.34366,0.92337 -0.70262,1.90767 -1.04678,2.83256 l 388.513739,-333.18073 0,-438.67434 -67.57461,0 z m 125.99886,0 0,442.49211 381.75255,327.38018 c -0.10601,-0.27679 -0.21438,-0.57315 -0.32032,-0.84978 C 756.70921,501.48465 720.46624,407.97907 684.74676,319.73082 650.07777,231.48258 615.41225,147.4414 580.74325,67.597739 546.07433,-12.245933 510.35706,-91.041379 473.58695,-168.78393 l -61.53999,0 z m -58.42425,515.6456 -429.78269,368.57511 c -23.97634,65.93144 -48.67958,134.93088 -74.29875,207.84691 l 206.430651,0 44.126079,-126.0604 c 15.7586,-43.07351 30.9944,-86.67767 45.70243,-130.8018 l 207.82228,0 0,-319.55982 z m 58.42425,3.81772 0,315.7421 193.90586,0 c 14.70805,44.12413 29.94385,87.20248 45.70251,129.22543 15.75855,42.02301 30.9943,84.56326 45.7024,127.63677 l 214.31241,0 c -25.7242,-73.21498 -50.7526,-142.48675 -75.2347,-208.65968 L 412.04727,350.67939 Z"
           id="path4457-1" />
      </g>
    </g>
  </g>
  <g
     inkscape:groupmode="layer"
     id="layer2"
     inkscape:label="Fill"
     style="display:inline"
     transform="translate(7.3887024,1065.2462)" />
  <g
     inkscape:groupmode="layer"
     id="layer4"
     inkscape:label="template"
     transform="translate(7.3887024,1065.2462)" />
  <g
     inkscape:groupmode="layer"
     id="layer3"
     inkscape:label="Breaks"
     style="display:inline"
     transform="translate(7.3887024,1065.2462)" />
</svg>
