<?xml version="1.0" encoding="UTF-8" standalone="no"?>
<!-- Created with Inkscape (http://www.inkscape.org/) -->

<svg
   xmlns:dc="http://purl.org/dc/elements/1.1/"
   xmlns:cc="http://creativecommons.org/ns#"
   xmlns:rdf="http://www.w3.org/1999/02/22-rdf-syntax-ns#"
   xmlns:svg="http://www.w3.org/2000/svg"
   xmlns="http://www.w3.org/2000/svg"
   xmlns:sodipodi="http://sodipodi.sourceforge.net/DTD/sodipodi-0.dtd"
   xmlns:inkscape="http://www.inkscape.org/namespaces/inkscape"
   width="210mm"
   height="128mm"
   viewBox="0 0 744.09449 453.54304"
   id="svg2"
   version="1.1"
   inkscape:version="0.91 r13725"
   sodipodi:docname="001-flattened.svg"
   inkscape:export-filename="/home/sam/Documents/Projects/jama/artwork/logo/001/001.png"
   inkscape:export-xdpi="180"
   inkscape:export-ydpi="180">
  <defs
     id="defs4" />
  <sodipodi:namedview
     id="base"
     pagecolor="#ffffff"
     bordercolor="#666666"
     borderopacity="1.0"
     inkscape:pageopacity="0.0"
     inkscape:pageshadow="2"
     inkscape:zoom="1.4030476"
     inkscape:cx="372.56916"
     inkscape:cy="172.5353"
     inkscape:document-units="px"
     inkscape:current-layer="layer1"
     showgrid="false"
     inkscape:window-width="1676"
     inkscape:window-height="1031"
     inkscape:window-x="1920"
     inkscape:window-y="265"
     inkscape:window-maximized="0" />
  <metadata
     id="metadata7">
    <rdf:RDF>
      <cc:Work
         rdf:about="">
        <dc:format>image/svg+xml</dc:format>
        <dc:type
           rdf:resource="http://purl.org/dc/dcmitype/StillImage" />
        <dc:title></dc:title>
      </cc:Work>
    </rdf:RDF>
  </metadata>
  <g
     inkscape:label="Text"
     inkscape:groupmode="layer"
     id="layer1"
     transform="translate(0,-598.81931)">
    <g
       style="font-style:normal;font-variant:normal;font-weight:500;font-stretch:normal;font-size:249.91932678px;line-height:125%;font-family:Ubuntu;-inkscape-font-specification:'Ubuntu, Medium';text-align:start;letter-spacing:0px;word-spacing:0px;writing-mode:lr-tb;text-anchor:start;fill:#000000;fill-opacity:1;stroke:none;stroke-width:1px;stroke-linecap:butt;stroke-linejoin:miter;stroke-opacity:1"
       id="text4155">
      <path
         d="m 129.0228,804.22701 q 0,12.74589 -2.74911,23.74234 -2.74911,10.99645 -9.74685,19.24379 -6.74782,8.24733 -18.494032,12.9958 -11.496289,4.74847 -29.240561,4.74847 -16.494676,0 -28.740723,-4.49855 -11.996127,-4.74847 -18.49403,-9.99677 l 11.24637,-24.74202 q 6.247983,4.24863 15.245079,8.24734 9.247015,3.74879 18.743949,3.74879 15.994837,0 23.242498,-7.99742 7.24766,-7.99742 7.24766,-27.49112 l 0,-114.21314 31.73975,0 0,116.21249 z"
         style="font-style:normal;font-variant:normal;font-weight:500;font-stretch:normal;font-size:249.91932678px;line-height:125%;font-family:Ubuntu;-inkscape-font-specification:'Ubuntu, Medium';text-align:start;writing-mode:lr-tb;text-anchor:start"
         id="path4466" />
    </g>
    <path
       style="font-style:normal;font-variant:normal;font-weight:500;font-stretch:normal;font-size:249.91932678px;line-height:125%;font-family:Ubuntu;-inkscape-font-specification:'Ubuntu, Medium';text-align:start;letter-spacing:0px;word-spacing:0px;writing-mode:lr-tb;text-anchor:start;fill:#000000;fill-opacity:1;stroke:none;stroke-width:1px;stroke-linecap:butt;stroke-linejoin:miter;stroke-opacity:1"
       d="M 215.93359 89.195312 C 210.10215 101.52467 204.43768 114.02101 198.93945 126.68359 C 193.44123 139.34617 187.86015 152.67444 182.19531 166.66992 C 176.69709 180.6654 171.03263 195.49464 165.20117 211.15625 C 165.14693 211.30193 165.09141 211.45759 165.03711 211.60352 L 226.64844 158.76562 L 226.64844 89.195312 L 215.93359 89.195312 z M 235.91406 89.195312 L 235.91406 159.37109 L 296.46094 211.29492 C 296.44361 211.24967 296.42553 211.20148 296.4082 211.15625 C 290.57675 195.49464 284.8289 180.6654 279.16406 166.66992 C 273.66584 152.67444 268.1662 139.34617 262.66797 126.68359 C 257.16974 114.02101 251.50528 101.52467 245.67383 89.195312 L 235.91406 89.195312 z M 226.64844 170.97266 L 158.49023 229.42188 C 154.68738 239.87911 150.77047 250.82349 146.70703 262.38867 L 179.44531 262.38867 L 186.44336 242.39648 C 188.94255 235.56536 191.35883 228.65008 193.69141 221.65234 L 226.64844 221.65234 L 226.64844 170.97266 z M 235.91406 171.57617 L 235.91406 221.65234 L 266.66797 221.65234 C 269.00055 228.65008 271.41682 235.48197 273.91602 242.14648 C 276.41521 248.811 278.82953 255.55755 281.16211 262.38867 L 315.15234 262.38867 C 311.07269 250.77735 307.10338 239.79139 303.2207 229.29688 L 235.91406 171.57617 z "
       transform="translate(0,598.81917)"
       id="path4463" />
    <g
       style="font-style:normal;font-variant:normal;font-weight:500;font-stretch:normal;font-size:249.91932678px;line-height:125%;font-family:Ubuntu;-inkscape-font-specification:'Ubuntu, Medium';text-align:start;letter-spacing:0px;word-spacing:0px;writing-mode:lr-tb;text-anchor:start;fill:#000000;fill-opacity:1;stroke:none;stroke-width:1px;stroke-linecap:butt;stroke-linejoin:miter;stroke-opacity:1"
       id="text4155-2-9">
      <path
         d="m 375.32094,688.01452 q 5.49822,9.49694 12.24604,23.2425 6.74782,13.74557 13.74557,28.99064 6.99774,14.99516 13.74556,30.74008 6.99774,15.495 12.74588,28.74072 5.74815,-13.24572 12.49597,-28.74072 6.74782,-15.74492 13.74556,-30.74008 6.99774,-15.24507 13.74557,-28.99064 6.74782,-13.74556 12.24604,-23.2425 l 28.49081,0 q 2.24927,18.99387 4.24863,40.48694 1.99935,21.24314 3.49887,43.73588 1.74943,22.24282 2.99903,44.98548 1.49951,22.49274 2.49919,43.9858 l -30.99,0 q -0.99967,-30.24024 -2.49919,-62.22991 -1.2496,-31.98968 -3.99871,-61.98 -2.74911,5.74815 -6.4979,13.74557 -3.74879,7.99741 -7.99742,17.49435 -4.24863,9.24701 -8.74718,19.24379 -4.24862,9.99677 -8.49725,19.4937 -3.99871,9.24702 -7.49758,17.49436 -3.49887,7.99742 -5.99807,13.74556 l -23.49241,0 q -2.4992,-5.74814 -5.99807,-13.99548 -3.49887,-8.24734 -7.7475,-17.49436 -3.9987,-9.49693 -8.49725,-19.4937 -4.24863,-9.99678 -8.49726,-19.24379 -4.24863,-9.24702 -7.99742,-17.24443 -3.74879,-8.24734 -6.4979,-13.74557 -2.74911,29.99032 -4.24863,61.98 -1.2496,31.98967 -2.24927,62.22991 l -30.99,0 q 0.99968,-21.49306 2.24927,-44.48564 1.49952,-22.99258 2.99904,-45.48532 1.74943,-22.74266 3.74879,-43.9858 1.99935,-21.24314 4.24862,-39.23734 l 29.24057,0 z"
         style="font-style:normal;font-variant:normal;font-weight:500;font-stretch:normal;font-size:249.91932678px;line-height:125%;font-family:Ubuntu;-inkscape-font-specification:'Ubuntu, Medium';text-align:start;writing-mode:lr-tb;text-anchor:start"
         id="path4460" />
    </g>
    <path
       style="font-style:normal;font-variant:normal;font-weight:500;font-stretch:normal;font-size:249.91932678px;line-height:125%;font-family:Ubuntu;-inkscape-font-specification:'Ubuntu, Medium';text-align:start;letter-spacing:0px;word-spacing:0px;writing-mode:lr-tb;text-anchor:start;fill:#000000;fill-opacity:1;stroke:none;stroke-width:1px;stroke-linecap:butt;stroke-linejoin:miter;stroke-opacity:1"
       d="M 608.68359 89.195312 C 602.85215 101.52467 597.18768 114.02101 591.68945 126.68359 C 586.19123 139.34617 580.61015 152.67444 574.94531 166.66992 C 569.44709 180.6654 563.78263 195.49464 557.95117 211.15625 C 557.89664 211.30269 557.83974 211.45878 557.78516 211.60547 L 619.40039 158.76562 L 619.40039 89.195312 L 608.68359 89.195312 z M 628.66602 89.195312 L 628.66602 159.37109 L 689.20898 211.29102 C 689.19217 211.24709 689.17502 211.20016 689.1582 211.15625 C 683.32675 195.49464 677.5789 180.6654 671.91406 166.66992 C 666.41584 152.67444 660.91815 139.34617 655.41992 126.68359 C 649.9217 114.02101 644.25723 101.52467 638.42578 89.195312 L 628.66602 89.195312 z M 619.40039 170.97266 L 551.24023 229.42578 C 547.43777 239.88199 543.52003 250.82476 539.45703 262.38867 L 572.19531 262.38867 L 579.19336 242.39648 C 581.69255 235.56536 584.10883 228.65008 586.44141 221.65234 L 619.40039 221.65234 L 619.40039 170.97266 z M 628.66602 171.57812 L 628.66602 221.65234 L 659.41797 221.65234 C 661.75055 228.65008 664.16682 235.48197 666.66602 242.14648 C 669.16521 248.811 671.58148 255.55755 673.91406 262.38867 L 707.90234 262.38867 C 703.82269 250.77735 699.85338 239.79139 695.9707 229.29688 L 628.66602 171.57812 z "
       transform="translate(0,598.81917)"
       id="path4457" />
  </g>
  <g
     inkscape:groupmode="layer"
     id="layer2"
     inkscape:label="Fill"
     style="display:inline" />
  <g
     inkscape:groupmode="layer"
     id="layer4"
     inkscape:label="template" />
  <g
     inkscape:groupmode="layer"
     id="layer3"
     inkscape:label="Breaks"
     style="display:inline" />
</svg>
